M48
; DRILL file {KiCad 9.0.0} date 2025-03-31T15:24:42+0900
; FORMAT={-:-/ absolute / metric / decimal}
; #@! TF.CreationDate,2025-03-31T15:24:42+09:00
; #@! TF.GenerationSoftware,Kicad,Pcbnew,9.0.0
; #@! TF.FileFunction,Plated,1,2,PTH
FMAT,2
METRIC
; #@! TA.AperFunction,Plated,PTH,ViaDrill
T1C0.300
; #@! TA.AperFunction,Plated,PTH,ComponentDrill
T2C0.500
; #@! TA.AperFunction,Plated,PTH,ComponentDrill
T3C0.800
; #@! TA.AperFunction,Plated,PTH,ComponentDrill
T4C1.000
; #@! TA.AperFunction,Plated,PTH,ComponentDrill
T5C3.200
%
G90
G05
T1
X105.7Y-87.92
X108.112Y-125.912
X108.8Y-134.81
X109.16Y-87.92
X109.16Y-88.87
X111.025Y-85.9
X111.15Y-123.89
X111.76Y-86.97
X111.76Y-87.92
X113.63Y-88.77
X115.09Y-117.48
X115.71Y-118.63
X120.445Y-119.255
X120.46Y-118.2
X120.815Y-99.57
X120.825Y-101.56
X120.825Y-103.55
X121.622Y-117.797
X122.805Y-97.04
X124.01Y-108.225
X124.025Y-105.825
X124.025Y-106.625
X124.025Y-107.425
X124.025Y-109.025
X124.025Y-109.825
X124.025Y-112.225
X124.025Y-113.025
X124.025Y-113.825
X124.025Y-114.625
X124.025Y-115.425
X124.025Y-116.225
X124.025Y-117.025
X124.795Y-97.04
X126.51Y-112.34
X126.71Y-117.07
X126.73Y-125.72
X126.815Y-97.04
X128.74Y-125.71
X128.815Y-97.07
X130.73Y-125.71
X130.815Y-97.04
X132.255Y-99.82
X132.73Y-125.71
X133.0Y-102.25
X133.825Y-97.06
X134.75Y-125.71
X135.4Y-119.8
X135.425Y-106.625
X135.815Y-97.04
X136.2Y-119.8
X136.34Y-110.625
X136.73Y-125.7
X137.0Y-119.8
X137.8Y-119.8
X137.825Y-97.04
X138.73Y-125.71
X139.4Y-119.8
X139.825Y-97.04
X140.2Y-119.8
X140.74Y-125.7
X141.0Y-119.8
X141.8Y-119.8
X141.825Y-97.04
X142.18Y-141.15
X142.27Y-117.025
X142.6Y-119.8
X143.4Y-119.8
X143.86Y-97.04
X144.85Y-141.145
X145.86Y-97.04
X147.35Y-141.132
X147.575Y-105.825
X147.575Y-109.825
X147.575Y-110.625
X147.575Y-111.425
X147.575Y-112.225
X147.575Y-115.425
X147.575Y-116.225
X147.86Y-97.04
X149.86Y-97.05
X149.935Y-105.07
X149.94Y-141.153
X150.105Y-111.49
X150.165Y-115.46
X151.86Y-97.04
X152.03Y-111.315
X152.03Y-115.227
X152.49Y-141.153
X153.86Y-97.03
X154.75Y-107.24
X154.76Y-101.26
X154.76Y-103.24
X154.76Y-105.25
X154.77Y-99.24
X155.11Y-141.172
X157.58Y-141.175
X160.18Y-141.175
X162.61Y-141.153
T3
X108.99Y-121.15
X108.99Y-123.65
X109.02Y-128.1
X109.02Y-130.6
X115.79Y-130.54
X115.79Y-133.04
X115.81Y-123.412
X115.81Y-125.912
X151.33Y-133.86
X154.83Y-133.86
X156.377Y-126.59
X159.877Y-126.59
T4
X103.0Y-95.82
X103.0Y-98.36
X103.0Y-100.9
X103.0Y-103.44
X103.0Y-105.98
X103.0Y-108.52
X103.0Y-111.06
X103.0Y-113.6
X103.02Y-121.15
X103.02Y-123.69
X103.02Y-126.23
X103.02Y-128.77
X103.02Y-131.31
X105.54Y-95.82
X105.54Y-98.36
X105.54Y-100.9
X105.54Y-103.44
X105.54Y-105.98
X105.54Y-108.52
X105.54Y-111.06
X105.54Y-113.6
X115.68Y-144.02
X115.7Y-78.02
X115.7Y-80.56
X118.22Y-144.02
X118.24Y-78.02
X118.24Y-80.56
X120.76Y-144.02
X120.78Y-78.02
X120.78Y-80.56
X123.3Y-144.02
X123.32Y-78.02
X123.32Y-80.56
X125.84Y-144.02
X125.86Y-78.02
X125.86Y-80.56
X128.38Y-144.02
X128.4Y-78.02
X128.4Y-80.56
X130.92Y-144.02
X130.94Y-78.02
X130.94Y-80.56
X133.46Y-144.02
X133.48Y-78.02
X133.48Y-80.56
X136.02Y-78.02
X136.02Y-80.56
X138.56Y-78.02
X138.56Y-80.56
X141.05Y-144.03
X141.1Y-78.02
X141.1Y-80.56
X143.59Y-144.03
X143.64Y-78.02
X143.64Y-80.56
X146.13Y-144.03
X148.67Y-144.03
X151.21Y-144.03
X153.75Y-144.03
X156.29Y-144.03
X158.83Y-144.03
X161.37Y-144.03
X163.91Y-144.03
X169.01Y-126.24
X169.01Y-128.78
X169.01Y-131.32
X169.01Y-133.86
X169.02Y-105.94
X169.02Y-108.48
X169.02Y-111.02
X169.02Y-113.56
T5
X103.0Y-78.01
X103.0Y-144.0
X169.0Y-78.01
X169.01Y-144.0
T2
G00X102.07Y-83.1
M15
G01X101.37Y-83.1
M16
G05
G00X102.07Y-91.74
M15
G01X101.37Y-91.74
M16
G05
G00X105.87Y-83.1
M15
G01X105.17Y-83.1
M16
G05
G00X105.87Y-91.74
M15
G01X105.17Y-91.74
M16
G05
M30
