%TF.GenerationSoftware,KiCad,Pcbnew,9.0.0*%
%TF.CreationDate,2025-03-31T15:24:45+09:00*%
%TF.ProjectId,ymz771,796d7a37-3731-42e6-9b69-6361645f7063,rev?*%
%TF.SameCoordinates,Original*%
%TF.FileFunction,Soldermask,Top*%
%TF.FilePolarity,Negative*%
%FSLAX46Y46*%
G04 Gerber Fmt 4.6, Leading zero omitted, Abs format (unit mm)*
G04 Created by KiCad (PCBNEW 9.0.0) date 2025-03-31 15:24:45*
%MOMM*%
%LPD*%
G01*
G04 APERTURE LIST*
G04 Aperture macros list*
%AMRoundRect*
0 Rectangle with rounded corners*
0 $1 Rounding radius*
0 $2 $3 $4 $5 $6 $7 $8 $9 X,Y pos of 4 corners*
0 Add a 4 corners polygon primitive as box body*
4,1,4,$2,$3,$4,$5,$6,$7,$8,$9,$2,$3,0*
0 Add four circle primitives for the rounded corners*
1,1,$1+$1,$2,$3*
1,1,$1+$1,$4,$5*
1,1,$1+$1,$6,$7*
1,1,$1+$1,$8,$9*
0 Add four rect primitives between the rounded corners*
20,1,$1+$1,$2,$3,$4,$5,0*
20,1,$1+$1,$4,$5,$6,$7,0*
20,1,$1+$1,$6,$7,$8,$9,0*
20,1,$1+$1,$8,$9,$2,$3,0*%
G04 Aperture macros list end*
%ADD10RoundRect,0.237500X-0.237500X0.287500X-0.237500X-0.287500X0.237500X-0.287500X0.237500X0.287500X0*%
%ADD11R,1.600000X1.600000*%
%ADD12C,1.600000*%
%ADD13RoundRect,0.237500X0.237500X-0.250000X0.237500X0.250000X-0.237500X0.250000X-0.237500X-0.250000X0*%
%ADD14RoundRect,0.237500X0.237500X-0.287500X0.237500X0.287500X-0.237500X0.287500X-0.237500X-0.287500X0*%
%ADD15RoundRect,0.190000X-0.190000X0.445000X-0.190000X-0.445000X0.190000X-0.445000X0.190000X0.445000X0*%
%ADD16RoundRect,0.237500X-0.250000X-0.237500X0.250000X-0.237500X0.250000X0.237500X-0.250000X0.237500X0*%
%ADD17RoundRect,0.175000X-0.625000X0.175000X-0.625000X-0.175000X0.625000X-0.175000X0.625000X0.175000X0*%
%ADD18RoundRect,0.200000X-0.600000X0.200000X-0.600000X-0.200000X0.600000X-0.200000X0.600000X0.200000X0*%
%ADD19RoundRect,0.225000X-0.575000X0.225000X-0.575000X-0.225000X0.575000X-0.225000X0.575000X0.225000X0*%
%ADD20O,1.700000X1.000000*%
%ADD21RoundRect,0.237500X0.250000X0.237500X-0.250000X0.237500X-0.250000X-0.237500X0.250000X-0.237500X0*%
%ADD22C,5.700000*%
%ADD23R,1.700000X1.700000*%
%ADD24O,1.700000X1.700000*%
%ADD25RoundRect,0.237500X-0.237500X0.300000X-0.237500X-0.300000X0.237500X-0.300000X0.237500X0.300000X0*%
%ADD26RoundRect,0.225000X0.250000X-0.225000X0.250000X0.225000X-0.250000X0.225000X-0.250000X-0.225000X0*%
%ADD27RoundRect,0.237500X0.237500X-0.300000X0.237500X0.300000X-0.237500X0.300000X-0.237500X-0.300000X0*%
%ADD28RoundRect,0.225000X-0.250000X0.225000X-0.250000X-0.225000X0.250000X-0.225000X0.250000X0.225000X0*%
%ADD29RoundRect,0.225000X0.225000X0.250000X-0.225000X0.250000X-0.225000X-0.250000X0.225000X-0.250000X0*%
%ADD30R,2.000000X4.500000*%
%ADD31R,2.350000X0.600000*%
%ADD32R,0.600000X2.350000*%
%ADD33RoundRect,0.237500X-0.237500X0.250000X-0.237500X-0.250000X0.237500X-0.250000X0.237500X0.250000X0*%
%ADD34RoundRect,0.225000X-0.225000X-0.250000X0.225000X-0.250000X0.225000X0.250000X-0.225000X0.250000X0*%
%ADD35RoundRect,0.237500X-0.287500X-0.237500X0.287500X-0.237500X0.287500X0.237500X-0.287500X0.237500X0*%
G04 APERTURE END LIST*
D10*
%TO.C,D10*%
X157580000Y-141160000D03*
X157580000Y-139410000D03*
%TD*%
%TO.C,D15*%
X149940000Y-139400000D03*
X149940000Y-141150000D03*
%TD*%
%TO.C,D14*%
X147350000Y-139370000D03*
X147350000Y-141120000D03*
%TD*%
%TO.C,D13*%
X144850000Y-139370000D03*
X144850000Y-141120000D03*
%TD*%
%TO.C,D12*%
X142180000Y-139360000D03*
X142180000Y-141110000D03*
%TD*%
%TO.C,D11*%
X160180000Y-139387500D03*
X160180000Y-141137500D03*
%TD*%
%TO.C,D9*%
X155110000Y-139385000D03*
X155110000Y-141135000D03*
%TD*%
%TO.C,D8*%
X152490000Y-139365000D03*
X152490000Y-141115000D03*
%TD*%
%TO.C,D7*%
X162610000Y-139387500D03*
X162610000Y-141137500D03*
%TD*%
D11*
%TO.C,C16*%
X156377349Y-126590000D03*
D12*
X159877349Y-126590000D03*
%TD*%
D11*
%TO.C,C15*%
X151330000Y-133860000D03*
D12*
X154830000Y-133860000D03*
%TD*%
D13*
%TO.C,R42*%
X107230000Y-138940000D03*
X107230000Y-137115000D03*
%TD*%
%TO.C,R40*%
X110250000Y-138945000D03*
X110250000Y-137120000D03*
%TD*%
%TO.C,R39*%
X111760000Y-138945000D03*
X111760000Y-137120000D03*
%TD*%
D14*
%TO.C,D6*%
X107230000Y-142950000D03*
X107230000Y-141200000D03*
%TD*%
%TO.C,D5*%
X108740000Y-142950000D03*
X108740000Y-141200000D03*
%TD*%
%TO.C,D4*%
X110250000Y-142950000D03*
X110250000Y-141200000D03*
%TD*%
%TO.C,D3*%
X111760000Y-142950000D03*
X111760000Y-141200000D03*
%TD*%
D15*
%TO.C,SW1*%
X115095000Y-104850000D03*
X113825000Y-104850000D03*
X112555000Y-104850000D03*
X111285000Y-104850000D03*
X111285000Y-112470000D03*
X112555000Y-112470000D03*
X113825000Y-112470000D03*
X115095000Y-112470000D03*
%TD*%
D16*
%TO.C,R38*%
X167195000Y-103130000D03*
X169020000Y-103130000D03*
%TD*%
D17*
%TO.C,J7*%
X105700000Y-86920000D03*
D18*
X105700000Y-88940000D03*
D19*
X105700000Y-90170000D03*
D17*
X105700000Y-87920000D03*
D18*
X105700000Y-85900000D03*
D19*
X105700000Y-84670000D03*
D20*
X105520000Y-83100000D03*
X101720000Y-83100000D03*
X105520000Y-91740000D03*
X101720000Y-91740000D03*
%TD*%
D14*
%TO.C,D1*%
X113630000Y-88770000D03*
X113630000Y-87020000D03*
%TD*%
D21*
%TO.C,R36*%
X109200000Y-84230000D03*
X111025000Y-84230000D03*
%TD*%
D13*
%TO.C,R35*%
X109160000Y-90800000D03*
X109160000Y-92625000D03*
%TD*%
%TO.C,R34*%
X110870000Y-90807500D03*
X110870000Y-92632500D03*
%TD*%
D16*
%TO.C,R33*%
X111025000Y-85900000D03*
X109200000Y-85900000D03*
%TD*%
D22*
%TO.C,REF\u002A\u002A*%
X169010000Y-144000000D03*
%TD*%
%TO.C,REF\u002A\u002A*%
X103000000Y-144000000D03*
%TD*%
%TO.C,REF\u002A\u002A*%
X169000000Y-78010000D03*
%TD*%
%TO.C,REF\u002A\u002A*%
X103000000Y-78010000D03*
%TD*%
D23*
%TO.C,J5*%
X169020000Y-113560000D03*
D24*
X169020000Y-111020000D03*
X169020000Y-108480000D03*
X169020000Y-105940000D03*
%TD*%
D25*
%TO.C,C3*%
X152030000Y-111315000D03*
X152030000Y-109590000D03*
%TD*%
D26*
%TO.C,C2*%
X150165000Y-115460000D03*
X150165000Y-117010000D03*
%TD*%
%TO.C,C4*%
X149935000Y-105070000D03*
X149935000Y-106620000D03*
%TD*%
D27*
%TO.C,C12*%
X152030000Y-115227500D03*
X152030000Y-116952500D03*
%TD*%
D28*
%TO.C,C11*%
X121575000Y-112170000D03*
X121575000Y-110620000D03*
%TD*%
D29*
%TO.C,C5*%
X132255000Y-99820000D03*
X133805000Y-99820000D03*
%TD*%
D13*
%TO.C,R11*%
X137825000Y-95215000D03*
X137825000Y-97040000D03*
%TD*%
%TO.C,R8*%
X130815000Y-97040000D03*
X130815000Y-95215000D03*
%TD*%
D26*
%TO.C,C6*%
X150105000Y-111490000D03*
X150105000Y-113040000D03*
%TD*%
D13*
%TO.C,R12*%
X139825000Y-95215000D03*
X139825000Y-97040000D03*
%TD*%
%TO.C,R15*%
X145860000Y-95215000D03*
X145860000Y-97040000D03*
%TD*%
%TO.C,R9*%
X133825000Y-95235000D03*
X133825000Y-97060000D03*
%TD*%
%TO.C,R6*%
X126815000Y-95215000D03*
X126815000Y-97040000D03*
%TD*%
%TO.C,R5*%
X124795000Y-95215000D03*
X124795000Y-97040000D03*
%TD*%
D30*
%TO.C,Y1*%
X155630000Y-119380000D03*
X155630000Y-110880000D03*
%TD*%
D21*
%TO.C,R2*%
X120825000Y-101560000D03*
X119000000Y-101560000D03*
%TD*%
D13*
%TO.C,R7*%
X128815000Y-95225000D03*
X128815000Y-97050000D03*
%TD*%
D31*
%TO.C,U1*%
X124025000Y-117025000D03*
X124025000Y-116225000D03*
X124025000Y-115425000D03*
X124025000Y-114625000D03*
X124025000Y-113825000D03*
X124025000Y-113025000D03*
X124025000Y-112225000D03*
X124025000Y-111425000D03*
X124025000Y-110625000D03*
X124025000Y-109825000D03*
X124025000Y-109025000D03*
X124025000Y-108225000D03*
X124025000Y-107425000D03*
X124025000Y-106625000D03*
X124025000Y-105825000D03*
X124025000Y-105025000D03*
D32*
X126600000Y-102250000D03*
X127400000Y-102250000D03*
X128200000Y-102250000D03*
X129000000Y-102250000D03*
X129800000Y-102250000D03*
X130600000Y-102250000D03*
X131400000Y-102250000D03*
X132200000Y-102250000D03*
X133000000Y-102250000D03*
X133800000Y-102250000D03*
X134600000Y-102250000D03*
X135400000Y-102250000D03*
X136200000Y-102250000D03*
X137000000Y-102250000D03*
X137800000Y-102250000D03*
X138600000Y-102250000D03*
X139400000Y-102250000D03*
X140200000Y-102250000D03*
X141000000Y-102250000D03*
X141800000Y-102250000D03*
X142600000Y-102250000D03*
X143400000Y-102250000D03*
X144200000Y-102250000D03*
X145000000Y-102250000D03*
D31*
X147575000Y-105025000D03*
X147575000Y-105825000D03*
X147575000Y-106625000D03*
X147575000Y-107425000D03*
X147575000Y-108225000D03*
X147575000Y-109025000D03*
X147575000Y-109825000D03*
X147575000Y-110625000D03*
X147575000Y-111425000D03*
X147575000Y-112225000D03*
X147575000Y-113025000D03*
X147575000Y-113825000D03*
X147575000Y-114625000D03*
X147575000Y-115425000D03*
X147575000Y-116225000D03*
X147575000Y-117025000D03*
D32*
X145000000Y-119800000D03*
X144200000Y-119800000D03*
X143400000Y-119800000D03*
X142600000Y-119800000D03*
X141800000Y-119800000D03*
X141000000Y-119800000D03*
X140200000Y-119800000D03*
X139400000Y-119800000D03*
X138600000Y-119800000D03*
X137800000Y-119800000D03*
X137000000Y-119800000D03*
X136200000Y-119800000D03*
X135400000Y-119800000D03*
X134600000Y-119800000D03*
X133800000Y-119800000D03*
X133000000Y-119800000D03*
X132200000Y-119800000D03*
X131400000Y-119800000D03*
X130600000Y-119800000D03*
X129800000Y-119800000D03*
X129000000Y-119800000D03*
X128200000Y-119800000D03*
X127400000Y-119800000D03*
X126600000Y-119800000D03*
%TD*%
D13*
%TO.C,R4*%
X122805000Y-95215000D03*
X122805000Y-97040000D03*
%TD*%
%TO.C,R10*%
X135815000Y-95215000D03*
X135815000Y-97040000D03*
%TD*%
D21*
%TO.C,R1*%
X120825000Y-103550000D03*
X119000000Y-103550000D03*
%TD*%
D13*
%TO.C,R14*%
X143860000Y-95215000D03*
X143860000Y-97040000D03*
%TD*%
D21*
%TO.C,R3*%
X120815000Y-99570000D03*
X118990000Y-99570000D03*
%TD*%
D13*
%TO.C,R16*%
X147860000Y-95215000D03*
X147860000Y-97040000D03*
%TD*%
%TO.C,R13*%
X141825000Y-95215000D03*
X141825000Y-97040000D03*
%TD*%
D33*
%TO.C,R32*%
X126730000Y-125720000D03*
X126730000Y-127545000D03*
%TD*%
%TO.C,R31*%
X128740000Y-125710000D03*
X128740000Y-127535000D03*
%TD*%
%TO.C,R30*%
X130730000Y-125710000D03*
X130730000Y-127535000D03*
%TD*%
%TO.C,R29*%
X132730000Y-125710000D03*
X132730000Y-127535000D03*
%TD*%
%TO.C,R28*%
X134750000Y-125710000D03*
X134750000Y-127535000D03*
%TD*%
%TO.C,R27*%
X136730000Y-125700000D03*
X136730000Y-127525000D03*
%TD*%
%TO.C,R26*%
X138730000Y-125710000D03*
X138730000Y-127535000D03*
%TD*%
%TO.C,R25*%
X140740000Y-125700000D03*
X140740000Y-127525000D03*
%TD*%
D16*
%TO.C,R24*%
X154750000Y-107240000D03*
X156575000Y-107240000D03*
%TD*%
%TO.C,R23*%
X154760000Y-105250000D03*
X156585000Y-105250000D03*
%TD*%
%TO.C,R22*%
X154760000Y-103240000D03*
X156585000Y-103240000D03*
%TD*%
%TO.C,R21*%
X154760000Y-101260000D03*
X156585000Y-101260000D03*
%TD*%
%TO.C,R20*%
X154770000Y-99240000D03*
X156595000Y-99240000D03*
%TD*%
D13*
%TO.C,R19*%
X153860000Y-97030000D03*
X153860000Y-95205000D03*
%TD*%
%TO.C,R18*%
X151860000Y-97040000D03*
X151860000Y-95215000D03*
%TD*%
%TO.C,R17*%
X149860000Y-97050000D03*
X149860000Y-95225000D03*
%TD*%
D11*
%TO.C,C7*%
X108990000Y-121150000D03*
D12*
X108990000Y-123650000D03*
%TD*%
D23*
%TO.C,J4*%
X105540000Y-113600000D03*
D24*
X103000000Y-113600000D03*
X105540000Y-111060000D03*
X103000000Y-111060000D03*
X105540000Y-108520000D03*
X103000000Y-108520000D03*
X105540000Y-105980000D03*
X103000000Y-105980000D03*
X105540000Y-103440000D03*
X103000000Y-103440000D03*
X105540000Y-100900000D03*
X103000000Y-100900000D03*
X105540000Y-98360000D03*
X103000000Y-98360000D03*
X105540000Y-95820000D03*
X103000000Y-95820000D03*
%TD*%
D11*
%TO.C,C10*%
X115790000Y-133040000D03*
D12*
X115790000Y-130540000D03*
%TD*%
D23*
%TO.C,J3*%
X115680000Y-144020000D03*
D24*
X118220000Y-144020000D03*
X120760000Y-144020000D03*
X123300000Y-144020000D03*
X125840000Y-144020000D03*
X128380000Y-144020000D03*
X130920000Y-144020000D03*
X133460000Y-144020000D03*
%TD*%
D11*
%TO.C,C9*%
X109020000Y-128100000D03*
D12*
X109020000Y-130600000D03*
%TD*%
D23*
%TO.C,J6*%
X103020000Y-121150000D03*
D24*
X103020000Y-123690000D03*
X103020000Y-126230000D03*
X103020000Y-128770000D03*
X103020000Y-131310000D03*
%TD*%
D11*
%TO.C,C8*%
X115810000Y-125912379D03*
D12*
X115810000Y-123412379D03*
%TD*%
D23*
%TO.C,J8*%
X141050000Y-144030000D03*
D24*
X143590000Y-144030000D03*
X146130000Y-144030000D03*
X148670000Y-144030000D03*
X151210000Y-144030000D03*
X153750000Y-144030000D03*
X156290000Y-144030000D03*
X158830000Y-144030000D03*
X161370000Y-144030000D03*
X163910000Y-144030000D03*
%TD*%
D23*
%TO.C,J2*%
X115700000Y-80560000D03*
D24*
X115700000Y-78020000D03*
X118240000Y-80560000D03*
X118240000Y-78020000D03*
X120780000Y-80560000D03*
X120780000Y-78020000D03*
X123320000Y-80560000D03*
X123320000Y-78020000D03*
X125860000Y-80560000D03*
X125860000Y-78020000D03*
X128400000Y-80560000D03*
X128400000Y-78020000D03*
X130940000Y-80560000D03*
X130940000Y-78020000D03*
X133480000Y-80560000D03*
X133480000Y-78020000D03*
X136020000Y-80560000D03*
X136020000Y-78020000D03*
X138560000Y-80560000D03*
X138560000Y-78020000D03*
X141100000Y-80560000D03*
X141100000Y-78020000D03*
X143640000Y-80560000D03*
X143640000Y-78020000D03*
%TD*%
D34*
%TO.C,C1*%
X138600000Y-122210000D03*
X140150000Y-122210000D03*
%TD*%
D23*
%TO.C,J1*%
X169010000Y-133860000D03*
D24*
X169010000Y-131320000D03*
X169010000Y-128780000D03*
X169010000Y-126240000D03*
%TD*%
D35*
%TO.C,D2*%
X163675000Y-103130000D03*
X165425000Y-103130000D03*
%TD*%
D13*
%TO.C,R41*%
X108740000Y-138945000D03*
X108740000Y-137120000D03*
%TD*%
M02*
